<svg width="60" height="58" fill="none" xmlns="http://www.w3.org/2000/svg"><path fill-rule="evenodd" clip-rule="evenodd" d="M30.08.83a29.09 29.09 0 0 0-9.2 56.7c1.45.26 1.98-.63 1.98-1.4l-.03-4.95c-8.1 1.76-9.8-3.9-9.8-3.9-1.32-3.36-3.23-4.26-3.23-4.26-2.64-1.8.2-1.76.2-1.76 2.92.2 4.45 3 4.45 3 2.6 4.44 6.81 3.16 8.46 2.41a6.24 6.24 0 0 1 1.86-3.89c-6.46-.73-13.25-3.23-13.25-14.38 0-3.17 1.13-5.77 2.99-7.8-.3-.74-1.3-3.7.29-7.7 0 0 2.44-.78 8 2.98 2.37-.65 4.81-.97 7.27-.98 2.46 0 4.91.33 7.28.98 5.56-3.77 8-2.98 8-2.98 1.59 4 .6 6.96.29 7.7a11.2 11.2 0 0 1 2.99 7.8c0 11.18-6.8 13.64-13.28 14.36 1.03.9 1.97 2.67 1.97 5.38 0 3.9-.04 7.03-.04 7.99 0 .78.52 1.68 2 1.4a29.1 29.1 0 0 0-9.2-56.7Z" fill="#CCC"/></svg>