<svg width="92" height="92" fill="none" xmlns="http://www.w3.org/2000/svg"><path d="M37.52 64.14h16.95-16.95ZM46 13.36v3.62-3.62Zm23.08 9.56-2.56 2.56 2.56-2.56ZM78.64 46h-3.62 3.63Zm-61.66 0h-3.63 3.63Zm8.5-20.52-2.56-2.56 2.56 2.56Zm7.7 33.35a18.14 18.14 0 1 1 25.65 0l-2 1.98a12.24 12.24 0 0 0-3.58 8.65v1.93a7.25 7.25 0 0 1-14.5 0v-1.93c0-3.24-1.3-6.36-3.59-8.65l-1.99-1.98Z" stroke="#EC7979" stroke-width="6.83" stroke-linecap="round" stroke-linejoin="round"/><circle cx="46" cy="46" r="45.5" stroke="#EC7979"/></svg>