<svg width="81" height="81" fill="none" xmlns="http://www.w3.org/2000/svg"><path d="M33.17 56.18h14.66-14.66Zm7.33-43.9v3.13-3.14Zm19.96 8.26-2.22 2.22 2.22-2.22Zm8.27 19.96h-3.14 3.14Zm-53.32 0h-3.14 3.14Zm7.35-17.74-2.22-2.22 2.22 2.22Zm6.65 28.83a15.68 15.68 0 1 1 22.18 0l-1.72 1.72a10.58 10.58 0 0 0-3.1 7.48v1.67a6.27 6.27 0 1 1-12.54 0v-1.67c0-2.8-1.12-5.5-3.1-7.48l-1.72-1.72Z" stroke="#EC7979" stroke-width="6.83" stroke-linecap="round" stroke-linejoin="round"/><circle cx="40.5" cy="40.5" r="39.28" stroke="#EC7979"/></svg>