<svg width="54" height="52" fill="none" xmlns="http://www.w3.org/2000/svg"><path d="M53.1 15.38A18.54 18.54 0 0 0 51.87 9a13.24 13.24 0 0 0-7.68-7.57A19.51 19.51 0 0 0 37.82.23C35.02.1 34.12.07 27 .07s-8.04 0-10.82.16C14 .27 11.85.68 9.8 1.43a13.46 13.46 0 0 0-7.68 7.58A18.6 18.6 0 0 0 .9 15.29C.78 18.06.74 18.93.74 25.95s0 7.92.16 10.67c.05 2.15.46 4.27 1.23 6.29a13.24 13.24 0 0 0 7.68 7.56c2.03.79 4.19 1.23 6.37 1.3 2.81.12 3.7.16 10.82.16 7.13 0 8.04 0 10.82-.16 2.18-.04 4.34-.45 6.38-1.2a13.48 13.48 0 0 0 7.68-7.58 18.7 18.7 0 0 0 1.22-6.28c.13-2.77.16-3.65.16-10.67s0-7.91-.16-10.66ZM26.98 39.23A13.39 13.39 0 0 1 13.5 25.94c0-7.34 6.03-13.3 13.48-13.3 3.58 0 7 1.4 9.54 3.9a13.2 13.2 0 0 1 0 18.8 13.58 13.58 0 0 1-9.54 3.9ZM41 15.26a3.18 3.18 0 0 1-2.9-1.92 3.06 3.06 0 0 1 .68-3.37 3.15 3.15 0 0 1 3.42-.68 3.15 3.15 0 0 1 1.7 1.68 3.12 3.12 0 0 1-2.9 4.28Z" fill="#CCC"/><path d="M26.98 34.57a8.7 8.7 0 0 0 8.76-8.63 8.7 8.7 0 0 0-8.76-8.63 8.7 8.7 0 0 0-8.76 8.63 8.7 8.7 0 0 0 8.76 8.63Z" fill="#CCC"/></svg>