<svg width="92" height="92" fill="none" xmlns="http://www.w3.org/2000/svg"><path d="M71.57 23c1.97 0 3.86.78 5.25 2.17A7.37 7.37 0 0 1 79 30.38v31.22c0 1.96-.78 3.84-2.17 5.22A7.45 7.45 0 0 1 71.56 69H20.43a7.46 7.46 0 0 1-5.25-2.17A7.36 7.36 0 0 1 13 61.61V30.39c0-1.96.78-3.84 2.17-5.23A7.45 7.45 0 0 1 20.44 23h51.14Zm0 4.93H20.43c-.66 0-1.29.26-1.75.72a2.46 2.46 0 0 0-.73 1.74v31.22a2.47 2.47 0 0 0 2.48 2.46h51.14c.66 0 1.29-.26 1.75-.72a2.46 2.46 0 0 0 .73-1.74V30.39c0-.65-.26-1.28-.73-1.74a2.48 2.48 0 0 0-1.75-.72ZM28.68 54.2h34.66c.63 0 1.23.24 1.69.67a2.46 2.46 0 0 1-1.36 4.24l-.33.02H28.68a2.48 2.48 0 0 1-1.7-.66 2.46 2.46 0 0 1-.22-3.36c.4-.48.96-.8 1.58-.88l.34-.03h34.66-34.66Zm32.18-11.5c.88 0 1.72.35 2.34.97a3.28 3.28 0 0 1 0 4.64 3.3 3.3 0 0 1-4.67 0 3.28 3.28 0 0 1 0-4.64 3.3 3.3 0 0 1 2.33-.96Zm-19.79 0a3.31 3.31 0 0 1 2.34.97 3.28 3.28 0 0 1 0 4.64 3.3 3.3 0 0 1-4.67 0 3.28 3.28 0 0 1 0-4.64 3.3 3.3 0 0 1 2.34-.96Zm-9.9 0c.88 0 1.72.35 2.34.97a3.28 3.28 0 0 1 0 4.64 3.3 3.3 0 0 1-4.67 0 3.28 3.28 0 0 1 0-4.64 3.31 3.31 0 0 1 2.33-.96Zm19.8 0a3.31 3.31 0 0 1 2.34.97 3.28 3.28 0 0 1 0 4.64 3.31 3.31 0 0 1-4.67 0 3.28 3.28 0 0 1 0-4.64 3.3 3.3 0 0 1 2.34-.96ZM26.2 32.86a3.31 3.31 0 0 1 2.34.97 3.28 3.28 0 0 1 0 4.64 3.31 3.31 0 0 1-4.67 0 3.28 3.28 0 0 1 0-4.64 3.31 3.31 0 0 1 2.33-.97Zm9.89 0a3.31 3.31 0 0 1 2.33.97 3.28 3.28 0 0 1 0 4.64 3.3 3.3 0 0 1-4.66 0 3.28 3.28 0 0 1 0-4.64 3.31 3.31 0 0 1 2.33-.97Zm9.9 0a3.31 3.31 0 0 1 2.34.97 3.28 3.28 0 0 1 0 4.64 3.3 3.3 0 0 1-4.67 0 3.28 3.28 0 0 1 0-4.64 3.31 3.31 0 0 1 2.33-.97Zm9.9 0a3.31 3.31 0 0 1 2.34.97 3.28 3.28 0 0 1 0 4.64 3.3 3.3 0 0 1-4.67 0 3.28 3.28 0 0 1 0-4.64 3.31 3.31 0 0 1 2.34-.97Zm9.9 0a3.31 3.31 0 0 1 2.34.97 3.28 3.28 0 0 1 0 4.64 3.31 3.31 0 0 1-4.67 0 3.28 3.28 0 0 1 0-4.64 3.31 3.31 0 0 1 2.34-.97Z" fill="#EC7979"/><circle cx="46" cy="46" r="45.5" stroke="#EC7979"/></svg>