<svg width="81" height="81" fill="none" xmlns="http://www.w3.org/2000/svg"><path d="M62.61 20.61a6.44 6.44 0 0 1 6.43 6.4V54a6.37 6.37 0 0 1-6.43 6.39H18.4a6.45 6.45 0 0 1-5.94-3.95 6.36 6.36 0 0 1-.49-2.44V27a6.37 6.37 0 0 1 6.43-6.39H62.6Zm0 4.26H18.4A2.15 2.15 0 0 0 16.25 27v27c0 1.17.96 2.13 2.14 2.13H62.6A2.15 2.15 0 0 0 64.75 54V27a2.12 2.12 0 0 0-2.14-2.13ZM25.52 47.6H55.5a2.15 2.15 0 0 1 2.14 1.99 2.12 2.12 0 0 1-1.85 2.25l-.29.02H25.52a2.15 2.15 0 0 1-2.13-1.98 2.12 2.12 0 0 1 1.84-2.26l.3-.02h29.96-29.97Zm27.83-9.94a2.86 2.86 0 0 1 2.86 2.84 2.83 2.83 0 0 1-2.86 2.84 2.86 2.86 0 0 1-2.85-2.84 2.83 2.83 0 0 1 2.85-2.84Zm-17.11 0a2.86 2.86 0 0 1 2.85 2.84 2.83 2.83 0 0 1-2.85 2.84 2.86 2.86 0 0 1-2.85-2.84 2.83 2.83 0 0 1 2.85-2.84Zm-8.56 0a2.86 2.86 0 0 1 2.85 2.84 2.83 2.83 0 0 1-2.85 2.84 2.86 2.86 0 0 1-2.86-2.84 2.83 2.83 0 0 1 2.86-2.84Zm17.12 0a2.86 2.86 0 0 1 2.86 2.84 2.83 2.83 0 0 1-2.86 2.84 2.86 2.86 0 0 1-2.85-2.84 2.83 2.83 0 0 1 2.85-2.84Zm-21.42-8.52a2.86 2.86 0 0 1 2.86 2.84 2.83 2.83 0 0 1-2.86 2.84 2.86 2.86 0 0 1-2.85-2.84 2.83 2.83 0 0 1 2.85-2.84Zm8.55 0a2.86 2.86 0 0 1 2.85 2.84 2.83 2.83 0 0 1-2.85 2.84 2.86 2.86 0 0 1-2.85-2.84 2.83 2.83 0 0 1 2.85-2.84Zm8.56 0a2.86 2.86 0 0 1 2.86 2.84 2.83 2.83 0 0 1-2.86 2.84 2.86 2.86 0 0 1-2.85-2.84 2.83 2.83 0 0 1 2.85-2.84Zm8.57 0a2.86 2.86 0 0 1 2.85 2.84 2.83 2.83 0 0 1-2.85 2.84 2.86 2.86 0 0 1-2.86-2.84 2.83 2.83 0 0 1 2.86-2.84Zm8.56 0a2.86 2.86 0 0 1 2.85 2.84 2.83 2.83 0 0 1-2.85 2.84 2.86 2.86 0 0 1-2.86-2.84 2.83 2.83 0 0 1 2.86-2.84Z" fill="#EC7979"/><circle cx="40.5" cy="40.5" r="39.28" stroke="#EC7979"/></svg>