<svg width="92" height="92" fill="none" xmlns="http://www.w3.org/2000/svg"><path d="M36.73 78.81a2.33 2.33 0 0 1-1.12-1.02 2.4 2.4 0 0 1-.27-1.5l4.21-27.93H28.38a2.28 2.28 0 0 1-1.03-.22 2.32 2.32 0 0 1-.83-.65 2.4 2.4 0 0 1-.46-2.03l6.95-30.64c.12-.53.41-1 .84-1.33.42-.33.94-.5 1.47-.49h23.14a2.28 2.28 0 0 1 1 .23c.31.15.59.37.8.64a2.4 2.4 0 0 1 .47 2l-4 18.34h10.99a2.28 2.28 0 0 1 2.08 1.33 2.4 2.4 0 0 1-.25 2.35L39.46 77.96a2.33 2.33 0 0 1-.8.74c-.3.18-.66.29-1.03.3a2.48 2.48 0 0 1-.9-.19Zm14.21-39.88 4.63-21.21h-18.4l-5.88 25.92h13.68l-3.68 24.24 21.8-28.95H50.94Z" fill="#EC7979"/><circle cx="46" cy="46" r="45.5" stroke="#EC7979"/></svg>