<svg width="81" height="81" fill="none" xmlns="http://www.w3.org/2000/svg"><path d="M32.48 68.87a2.01 2.01 0 0 1-.96-.88c-.22-.4-.3-.85-.24-1.3l3.65-24.15h-9.67a1.97 1.97 0 0 1-1.6-.75 2.05 2.05 0 0 1-.4-1.76l6-26.5c.1-.45.37-.86.73-1.14.36-.29.81-.44 1.27-.42h20.02a1.97 1.97 0 0 1 1.56.75 2.05 2.05 0 0 1 .4 1.73l-3.47 15.86h9.51a1.98 1.98 0 0 1 1.96 2.19c-.04.36-.17.7-.38.99L34.85 68.14a2.01 2.01 0 0 1-1.58.9c-.27-.01-.54-.07-.79-.17Zm12.3-34.48 4-18.35H32.86l-5.09 22.42h11.83l-3.18 20.95L55.28 34.4h-10.5Z" fill="#EC7979"/><circle cx="40.5" cy="40.5" r="39.28" stroke="#EC7979"/></svg>