<svg width="60" height="60" fill="none" xmlns="http://www.w3.org/2000/svg"><path d="M21.37 57.83A29.5 29.5 0 0 0 30 59.17a29.17 29.17 0 1 0-10.38-1.93c-.27-2.27-.53-6.04 0-8.63l3.35-14.41s-.84-1.7-.84-4.38c0-4.02 2.5-7.02 5.36-7.02 2.51 0 3.68 1.83 3.68 4.2 0 2.5-1.67 6.1-2.51 9.53a4.46 4.46 0 0 0 4.43 5.37c5.2 0 9.22-5.54 9.22-13.36 0-7-5.02-11.78-12.22-11.78-8.23 0-13.07 6.12-13.07 12.57 0 2.5.82 5.05 2.16 6.7.26.18.26.42.17.85l-.84 3.18c0 .5-.32.67-.82.32-3.73-1.63-5.89-6.94-5.89-11.23 0-9.21 6.53-17.58 19.13-17.58 10.04 0 17.85 7.2 17.85 16.77 0 10.03-6.2 18.08-15.1 18.08-2.83 0-5.6-1.52-6.6-3.3l-1.95 6.92c-.67 2.5-2.5 5.86-3.76 7.87v-.08Z" fill="#CCC"/></svg>