<svg width="59" height="48" fill="none" xmlns="http://www.w3.org/2000/svg"><path d="M52.26 12.32c.04.52.04 1.02.04 1.53 0 15.53-11.82 33.43-33.42 33.43A33.2 33.2 0 0 1 .83 42c.95.11 1.86.15 2.84.15a23.54 23.54 0 0 0 14.59-5.02 11.77 11.77 0 0 1-10.99-8.15 12.5 12.5 0 0 0 5.31-.22 11.75 11.75 0 0 1-9.42-11.53v-.14c1.57.87 3.39 1.42 5.31 1.49A11.73 11.73 0 0 1 4.83 2.87a33.42 33.42 0 0 0 24.23 12.3A11.74 11.74 0 0 1 49.1 4.43a23.2 23.2 0 0 0 7.45-2.85 11.72 11.72 0 0 1-5.16 6.48c2.33-.27 4.61-.88 6.76-1.82-1.6 2.34-3.6 4.4-5.89 6.07Z" fill="#CCC"/></svg>